<svg width="6" height="11" viewBox="0 0 6 11" fill="none" xmlns="http://www.w3.org/2000/svg">
    <path d="M5.14855 0.00141819C5.34715 0.00106054 5.53961 0.0648566 5.69252 0.181732C5.77859 0.247546 5.84973 0.328376 5.90187 0.419589C5.95402 0.510802 5.98615 0.610607 5.99641 0.71329C6.00667 0.815972 5.99487 0.919514 5.96169 1.01798C5.9285 1.11645 5.87458 1.20792 5.80302 1.28714L1.99524 5.48925L5.66702 9.6992C5.73763 9.77939 5.79035 9.87166 5.82216 9.97071C5.85398 10.0698 5.86426 10.1736 5.85241 10.2763C5.84056 10.3791 5.80682 10.4786 5.75313 10.5693C5.69943 10.6599 5.62684 10.7399 5.53953 10.8046C5.45159 10.876 5.34861 10.9298 5.23704 10.9627C5.12547 10.9956 5.00773 11.0069 4.89121 10.9959C4.77469 10.9849 4.6619 10.9517 4.55992 10.8986C4.45794 10.8454 4.36898 10.7734 4.29861 10.687L0.193352 5.98315C0.0683403 5.84287 -4.66233e-07 5.66692 -4.82108e-07 5.48533C-4.97983e-07 5.30374 0.0683403 5.12778 0.193352 4.9875L4.4431 0.283651C4.52836 0.188775 4.63667 0.113777 4.75924 0.0647403C4.88181 0.0157033 5.01519 -0.0059909 5.14855 0.00141819Z" fill="#8D9290"/>
    </svg>
    