<svg width="26" height="26" viewBox="0 0 6241 6241" fill="none" xmlns="http://www.w3.org/2000/svg">
    <circle cx="3120.5" cy="3120.5" r="3120.5" fill="#0C3877"/>
    <path fill-rule="evenodd" clip-rule="evenodd" d="M4451.3 3833.08H1773.72L1652.02 3304.06H4573.18L4451.3 3833.08Z" fill="white"/>
    <path fill-rule="evenodd" clip-rule="evenodd" d="M3996.93 5479.78H2228.16L1845.62 4027.09H4379.47L3996.93 5479.78Z" fill="white"/>
    <path d="M4217.06 600.53C4175 575.28 4128.73 559.222 4080.92 553.275C4033.1 547.328 3984.66 551.609 3938.38 565.873C3892.1 580.137 3848.88 604.104 3811.18 636.404C3773.49 668.703 3742.07 708.702 3718.72 754.112L3122.92 2213.83L2649.14 1654.85C2615.34 1617.09 2574.9 1586.98 2530.2 1566.26C2485.49 1545.54 2437.41 1534.63 2388.76 1534.18C2340.1 1533.72 2291.85 1543.72 2246.82 1563.6C2201.79 1583.48 2160.88 1612.83 2126.47 1649.95C2092.07 1687.07 2064.86 1731.21 2046.44 1779.79C2028.01 1828.37 2018.74 1880.43 2019.17 1932.92C2019.59 1985.41 2029.7 2037.28 2048.9 2085.51C2068.1 2133.74 2096.02 2177.37 2131.02 2213.83L2863.86 3004.47C2933.11 3079.39 3026.55 3120.5 3122.92 3120.5L3173.67 3116.55C3229.83 3108.07 3283.41 3085.64 3330.17 3051.04C3376.94 3016.43 3415.62 2970.58 3443.17 2917.11L4359.23 1138.17C4382.62 1092.79 4397.49 1042.89 4403 991.32C4408.52 939.745 4404.56 887.504 4391.36 837.579C4378.15 787.655 4355.97 741.025 4326.06 700.351C4296.15 659.678 4259.11 625.759 4217.06 600.53Z" fill="white"/>
    </svg>
    