<svg width="6" height="11" viewBox="0 0 6 11" fill="none" xmlns="http://www.w3.org/2000/svg">
    <path d="M0.851445 10.9986C0.652853 10.9989 0.460393 10.9351 0.307477 10.8183C0.221413 10.7525 0.150271 10.6716 0.0981246 10.5804C0.0459785 10.4892 0.0138536 10.3894 0.0035897 10.2867C-0.00667418 10.184 0.00512483 10.0805 0.0383107 9.98202C0.0714965 9.88355 0.125416 9.79208 0.196984 9.71286L4.00476 5.51075L0.332976 1.3008C0.262375 1.22061 0.209651 1.12834 0.177836 1.02929C0.146021 0.930246 0.135741 0.826376 0.147589 0.723653C0.159437 0.62093 0.193177 0.521379 0.246871 0.430723C0.300566 0.340066 0.373156 0.260092 0.460468 0.195396C0.548409 0.124026 0.651394 0.070192 0.76296 0.0372736C0.874526 0.00435519 0.992266 -0.00693696 1.10879 0.00410525C1.22531 0.0151475 1.3381 0.0482859 1.44008 0.101441C1.54206 0.154596 1.63102 0.22662 1.70139 0.312992L5.80665 5.01685C5.93166 5.15713 6 5.33308 6 5.51467C6 5.69626 5.93166 5.87222 5.80665 6.0125L1.5569 10.7163C1.47164 10.8112 1.36333 10.8862 1.24075 10.9353C1.11818 10.9843 0.984807 11.006 0.851445 10.9986Z" fill="#B1B0BA"/>
</svg>
    