<svg width="15" height="15" viewBox="0 0 81 81" fill="none" xmlns="http://www.w3.org/2000/svg">
    <path opacity="0.5" d="M49.7929 45.8006L49.7927 45.8008C48.6549 46.8672 48 48.3333 48 49.8794L48 72.5563C48 72.5568 48 72.5573 48 72.5578C47.9986 73.0462 47.8535 73.5306 47.5723 73.9569C47.2902 74.3845 46.88 74.7397 46.3795 74.9722L47.0111 76.3316L46.3752 74.9742L37.3752 79.1905L37.3749 79.1907C35.2352 80.1936 33 78.6625 33 76.7802V49.8794V49.8786C32.9995 49.1129 32.8385 48.3572 32.5287 47.6559C32.219 46.9551 31.7681 46.325 31.2063 45.7999C31.2061 45.7997 31.2059 45.7995 31.2056 45.7992L3.66278 19.9914C3.66273 19.9914 3.66268 19.9913 3.66262 19.9913C2.26629 18.6824 1.5 16.9253 1.5 15.1174V4.22064C1.5 2.80248 2.74735 1.50008 4.5 1.50008L76.5 1.5001L76.5086 1.50005C76.9104 1.49775 77.3072 1.57066 77.6754 1.71289C78.0435 1.85508 78.3733 2.06273 78.6479 2.32023C78.9222 2.57757 79.1357 2.87922 79.2802 3.20563C79.4242 3.53082 79.4981 3.87654 79.5 4.22384V15.1158C79.4991 16.0164 79.3097 16.91 78.9405 17.7456C78.5712 18.5815 78.0281 19.3453 77.3384 19.9903L77.3374 19.9913L49.7929 45.8006Z" stroke="#5B6762" stroke-width="3"/>
    </svg>
    