<svg width="25" height="25" viewBox="0 0 25 25" fill="none" xmlns="http://www.w3.org/2000/svg">
    <path d="M12.4807 0.000430258C12.3714 0.00446745 12.2661 0.0442017 12.1796 0.114109L0.200749 9.87664C-0.0262958 10.0615 -0.0667814 10.4034 0.110216 10.6405C0.287213 10.8776 0.614556 10.9199 0.841601 10.7351L1.56281 10.1476V24.4487C1.56281 24.7492 1.79596 24.9927 2.08363 24.9927H9.28763C9.34378 25.0024 9.40135 25.0024 9.4575 24.9927H15.5375C15.5936 25.0024 15.6512 25.0024 15.7073 24.9927H22.9164C23.2041 24.9927 23.4372 24.7492 23.4372 24.4487V10.1476L24.1584 10.7351C24.3053 10.8547 24.5021 10.8834 24.6746 10.8103C24.8471 10.7372 24.9694 10.5736 24.995 10.3811C25.0207 10.1886 24.9462 9.99626 24.7993 9.87664L20.8331 6.64477V2.69046H17.7082V4.0971L12.8205 0.114109C12.7236 0.0357024 12.6032 -0.00466933 12.4807 0.000430258ZM12.5 1.23389L22.3956 9.29868V23.9048H16.1458V13.5696H8.85429V23.9048H2.60445V9.29868L12.5 1.23389ZM18.7499 3.77838H19.7915V5.7959L18.7499 4.94597V3.77838ZM9.89593 14.6575H15.1041V23.9048H9.89593V14.6575Z" fill="#BBB8B8"/>
    </svg>
    
    