<svg width="100" height="100" viewBox="0 0 866 780" fill="none" xmlns="http://www.w3.org/2000/svg">
    <path d="M790 461.617C737.413 739.067 706.245 674.045 372.841 777.281C108.815 816.77 -133.841 413.711 85.0034 376.94C303.848 340.169 343.759 80 560.302 80C776.844 80 757.018 270.381 790 461.617Z" fill="#B5C4D7"/>
    <path d="M188.38 607.12H174.44V665.27H188.38V607.12Z" fill="#AFB1B2"/>
    <path d="M694.81 607.12H680.87V665.27H694.81V607.12Z" fill="#AFB1B2"/>
    <path d="M348.45 246.65C348.45 246.65 362.24 284 377.7 281.51C377.7 281.51 380 257.78 348.45 246.65Z" fill="#0C3877"/>
    <path d="M490.07 282L483.38 273.92C483.11 277 480.93 283.08 479.56 286.66C478.683 288.902 478.137 291.26 477.94 293.66C476.44 314.51 489.68 335.29 489.68 335.29C435.61 350.65 384.03 334.29 384.03 334.29C388.26 320.851 391.089 307.011 392.47 292.99L381.83 271.71L377.7 281.46C377.11 255.46 348.45 246.6 348.45 246.6C348.45 246.6 393.45 197.2 469.87 216.94C476.582 218.692 482.916 221.657 488.56 225.69C497.27 231.88 511.11 242.11 520.41 251.03C520.41 251.08 523 276.88 490.07 282Z" fill="#0C3877"/>
    <path opacity="0.2" d="M399.67 217.1C399.67 217.1 408.61 231 428.16 233C447.71 235 458.96 230.35 469.23 217.1C469.23 217.1 442.4 205.51 399.67 217.1Z" fill="white"/>
    <path d="M417.59 78.83C417.59 78.83 433.92 68.21 460.84 63.7C461.945 63.5156 463.079 63.5933 464.149 63.9268C465.218 64.2602 466.195 64.8402 467 65.62C476.84 75.2 508.62 113.37 486.7 190.21C486.7 190.21 500.59 187.56 500.89 194.65C500.89 194.65 502.07 198.78 495.57 200.26C495.57 200.26 502.95 203.81 493.8 207.35C493.8 207.35 473.9 213.14 447.41 208.12C437.651 206.252 427.698 205.607 417.78 206.2C411.015 206.52 404.28 207.298 397.62 208.53C397.62 208.53 366.15 217.1 365.27 202.92C365.27 202.92 365.27 195.83 381.52 196.12C381.52 196.12 361.62 140.74 383.94 82.7C384.485 81.3089 385.53 80.1714 386.87 79.51C393.05 76.49 411 68.86 417.59 78.83Z" fill="#2F2E41"/>
    <path d="M423.2 181.94L420.54 215.33H450.68L445.06 181.94H423.2Z" fill="#F9B499"/>
    <path d="M407.24 219.47L426.45 213.56H443.59L462.79 218.28C462.79 218.28 442.11 236.31 407.24 219.47Z" fill="#F9B499"/>
    <path d="M490.07 282C502.68 253.43 520.41 251.07 520.41 251.07L513.21 244.62C491.06 251.07 486.71 277.94 486.71 277.94L490.07 282Z" fill="#0C3877"/>
    <path d="M356 239.77C356 239.77 381.64 251.04 381.81 271.77L377.68 281.52C377.68 281.52 378.85 258.05 348.43 246.66C348.45 246.65 350.18 244.2 356 239.77Z" fill="#0C3877"/>
    <path opacity="0.2" d="M366.56 257.21C366.56 257.21 389.22 251.67 393.16 246.94C393.16 246.94 395.45 259 385.05 278.19L381.83 271.76L377.7 281.51C377.554 276.922 376.493 272.409 374.58 268.237C372.667 264.064 369.941 260.315 366.56 257.21V257.21Z" fill="black"/>
    <path opacity="0.2" d="M485 223.39C485 223.39 499.07 239.25 496.51 270.12C496.51 270.12 505.46 255.03 520.44 251.12C520.41 251.08 499 231.65 485 223.39Z" fill="black"/>
    <path d="M302.14 304.88C302.14 304.88 343.72 256.4 354.65 249.31C354.65 249.31 364.83 253.25 373.18 265.46C373.18 265.46 346.38 288.01 325.99 310.46L302.14 304.88Z" fill="#F9B499"/>
    <path d="M321.47 416.83C321.47 416.83 288 401.79 270.78 352C270.78 352 278.78 325.34 298.27 314C298.27 314 365.77 330.21 388.49 334.87C388.49 334.87 437.79 349.87 489.68 335.38C489.68 335.38 569.93 314.9 579.23 314C579.23 314 610.59 357.39 607.15 365.46C607.15 365.46 588.68 394.58 543.15 409.62C543.15 409.62 553.51 363.15 514.8 343.36C514.8 343.36 545.53 333.9 559.12 327.99C559.12 327.99 479.18 382.65 388.64 356.36C388.64 356.36 348.46 349.84 316.55 326.22C316.55 326.22 351.9 341.22 365.15 352.61C365.14 352.52 324.68 367.68 321.47 416.83Z" fill="#24333E"/>
    <path d="M341.55 402.56C341.55 402.56 331.55 414.95 321.47 416.83C321.47 416.83 322.94 367.49 365.14 352.52L355.63 345.78C355.63 345.78 397.79 362.95 436.49 362.86C436.49 362.86 477.83 363.62 514.19 349.21L514.79 343.27C514.79 343.27 531.39 349.63 540.03 370.91C544.602 383.252 545.678 396.616 543.14 409.53C543.14 409.53 529.42 396.76 526.7 389.72L535.46 386.52C535.46 386.52 534.6 364.06 516.59 349.75L423.79 399.7L357.61 360.4C357.61 360.4 340.32 376.21 336.19 399.7L341.55 402.56Z" fill="#24333E"/>
    <path opacity="0.2" d="M341.55 402.56C341.55 402.56 331.55 414.95 321.47 416.83C321.47 416.83 322.94 367.49 365.14 352.52L355.63 345.78C355.63 345.78 397.79 362.95 436.49 362.86C436.49 362.86 477.83 363.62 514.19 349.21L514.79 343.27C514.79 343.27 531.39 349.63 540.03 370.91C544.602 383.252 545.678 396.616 543.14 409.53C543.14 409.53 529.42 396.76 526.7 389.72L535.46 386.52C535.46 386.52 534.6 364.06 516.59 349.75L423.79 399.7L357.61 360.4C357.61 360.4 340.32 376.21 336.19 399.7L341.55 402.56Z" fill="black"/>
    <path d="M471.1 407.86C471.1 407.86 510.16 396.93 526.7 389.72L535.46 386.52C535.46 386.52 534.24 362.35 516.59 349.75L422.87 399.92L439.09 409.75C439.09 409.75 440.93 410.14 447.28 405.75C447.28 405.75 453.16 399.13 463.05 404.88L471.1 407.86Z" fill="#F9B499"/>
    <path d="M435.92 401.47C432.97 401.53 428.78 400.98 426.99 397.72L422.45 399.91L439.09 411.22C439.09 411.22 441.72 411.22 447.28 406.74C447.28 406.74 453.06 399.43 463.05 405.74L469.86 408.56L474.22 406.94C474.22 406.94 456.16 394.28 440.6 400.46C439.114 401.076 437.528 401.419 435.92 401.47Z" fill="#F7A78D"/>
    <path d="M367.71 413.37L350.39 425C350.229 425.108 350.099 425.256 350.012 425.429C349.926 425.602 349.885 425.795 349.896 425.988C349.906 426.182 349.966 426.369 350.07 426.533C350.174 426.696 350.319 426.829 350.49 426.92L361.68 432.92C361.911 433.05 362.182 433.09 362.44 433.03L403.54 424.26C403.54 424.26 380.38 418.31 367.71 413.37Z" fill="#F9B499"/>
    <path d="M390.11 427.1C384.75 425.43 379.11 423.5 373.36 421.27C369.6 419.82 365.99 418.33 362.54 416.83L367.71 413.37C367.71 413.37 392.5 421.77 403.54 424.23L390.11 427.1Z" fill="#F7A78D"/>
    <path d="M311 655.3C311 655.3 312 539.42 320.57 513.72C320.57 513.72 475.25 498.61 542.76 513.72C542.76 513.72 552.33 548.49 554.85 655.3C554.85 655.3 559.85 632.3 563.25 625.12C563.474 624.646 563.816 624.237 564.243 623.932C564.67 623.627 565.168 623.437 565.69 623.38C572.05 622.65 596.02 620.18 599.6 623.76C599.6 623.76 601.97 632.43 601.6 635.38C601.6 635.38 587.24 640.12 579.16 640.07C578.473 640.067 577.797 640.245 577.2 640.585C576.604 640.926 576.107 641.417 575.76 642.01L562.76 664.34H302.35L290.05 642.76C289.652 642.064 289.101 641.468 288.44 641.016C287.778 640.564 287.022 640.268 286.23 640.15C281.05 639.41 269.31 637.54 264.1 635.28C264.1 635.28 263.88 624.65 267.95 622.61C267.95 622.61 291.75 621.24 299.73 622.67C300.406 622.799 301.038 623.101 301.563 623.546C302.089 623.991 302.491 624.564 302.73 625.21C306.145 635.047 308.908 645.099 311 655.3V655.3Z" fill="#868D91"/>
    <path d="M367.59 502.35C367.59 502.35 369.5 466.76 378.41 461.06C378.916 460.753 379.489 460.575 380.08 460.54C387.83 459.87 453.64 454.64 484.68 460.61C486.001 460.761 487.236 461.341 488.196 462.26C489.157 463.179 489.79 464.387 490 465.7C490 465.7 496.58 491.26 498.15 499.81L367.59 502.35Z" fill="#868D90"/>
    <path d="M588.88 600.38L584.64 558.91L622.14 557.89L618.41 600.38H588.88Z" fill="#24333E"/>
    <path opacity="0.2" d="M613.83 567.56C613.83 567.56 590.83 567.04 585.37 566.03L584.64 558.91L622.14 557.91L618.41 600.4H613.32L613.83 567.56Z" fill="black"/>
    <path d="M576.94 495.36L588.96 552.1H594.67L583.24 495.36H576.94Z" fill="#CCCCCC"/>
    <path d="M575.07 496.12L576.94 495.36L588.96 552.1H587.08L575.07 496.12Z" fill="#CCCCCC"/>
    <path opacity="0.2" d="M575.07 496.12L576.94 495.36L588.96 552.1H587.08L575.07 496.12Z" fill="black"/>
    <path opacity="0.2" d="M596.05 551.99L591.91 518.48L597.92 517.98L601.61 551.83L596.05 551.99Z" fill="black"/>
    <path opacity="0.2" d="M596.34 547.87H601.17L601.61 551.83L596.05 551.99L595.54 547.87H596.34Z" fill="black"/>
    <path opacity="0.2" d="M592.29 521.57L598.25 521.07L597.92 517.98L591.91 518.48L592.29 521.57Z" fill="black"/>
    <path opacity="0.2" d="M591.91 513.35L592.48 518.43L597.22 518.04L596.53 512.96C595.771 512.705 594.961 512.637 594.17 512.76C593.394 512.853 592.633 513.052 591.91 513.35V513.35Z" fill="black"/>
    <path opacity="0.2" d="M606.53 525.72L607.13 551.63L611.41 551.45L612.15 525.72H606.53Z" fill="black"/>
    <path d="M607.27 520.74L606.53 525.72H612.15L611.41 520.74H607.27Z" fill="#CCCCCC"/>
    <path opacity="0.2" d="M607.27 520.74L606.53 525.72H612.15L611.41 520.74H607.27Z" fill="black"/>
    <path opacity="0.2" d="M607.05 547.87H611.51L611.41 551.45L607.13 551.63L607.05 547.87Z" fill="black"/>
    <path opacity="0.2" d="M616.43 522.71L614.43 551.31L619.85 551.05L623.69 522.32C623.69 522.32 618.6 520.54 616.43 522.71Z" fill="black"/>
    <path opacity="0.2" d="M614.7 547.87H620.3L619.88 551.05L614.46 551.31L614.7 547.87Z" fill="black"/>
    <path d="M125.08 600.38L129.72 613.86H737.2L740.69 600.38H125.08Z" fill="#CCCCCC"/>
    <path opacity="0.2" d="M125.08 600.38L129.72 613.86H737.2L740.69 600.38H125.08Z" fill="#39434B"/>
    <path d="M293.29 600.38H156.59L154.7 594.7H295.24L293.29 600.38Z" fill="#2F2E41"/>
    <path d="M158.76 588.4L160.14 594.7H291.72V588.4C291.72 588.4 250.35 567.18 227.11 590.18C227.11 590.18 213.11 569.89 195.4 576.98L158.76 588.4Z" fill="#CCCCCC"/>
    <path d="M226.79 590.29C224.645 583.895 220.465 578.377 214.89 574.58C212.898 573.276 210.646 572.422 208.291 572.076C205.935 571.731 203.532 571.903 201.25 572.58L162.8 583.81L162.6 583.15L201.06 571.94C203.436 571.226 205.938 571.04 208.393 571.396C210.848 571.752 213.195 572.641 215.27 574C220.965 577.859 225.236 583.48 227.43 590L226.79 590.29Z" fill="#CCCCCC"/>
    <path d="M228.79 587L228.19 586.66C234.46 575.76 246.32 570.92 262.48 572.66C270.279 573.611 277.911 575.63 285.16 578.66L284.88 579.29C284.47 579.08 243.63 561.23 228.79 587Z" fill="#CCCCCC"/>
    <path d="M434.82 190.21C460.004 190.21 480.42 166.248 480.42 136.69C480.42 107.132 460.004 83.17 434.82 83.17C409.636 83.17 389.22 107.132 389.22 136.69C389.22 166.248 409.636 190.21 434.82 190.21Z" fill="#F9B499"/>
    <path d="M479.34 162.61C485.106 162.61 489.78 157.936 489.78 152.17C489.78 146.404 485.106 141.73 479.34 141.73C473.574 141.73 468.9 146.404 468.9 152.17C468.9 157.936 473.574 162.61 479.34 162.61Z" fill="#F9B499"/>
    <path d="M387.2 162.61C392.966 162.61 397.64 157.936 397.64 152.17C397.64 146.404 392.966 141.73 387.2 141.73C381.434 141.73 376.76 146.404 376.76 152.17C376.76 157.936 381.434 162.61 387.2 162.61Z" fill="#F9B499"/>
    <path d="M416.69 98.2C416.69 98.2 443.06 145.55 481.97 139.44C481.97 139.44 484.42 96.14 444.6 83.44C444.6 83.44 409.19 73.3 392.05 114.27C392.05 114.27 387.93 125.68 387.83 133.03C387.83 133 403.25 131.19 416.69 98.2Z" fill="#2F2E41"/>
    <path d="M490.07 282C490.07 282 499.64 255.49 520.41 251.07C520.41 251.08 523.36 276.66 490.07 282Z" fill="#0C3877"/>
    <path d="M497.3 268.91C497.3 268.91 525.13 286.73 547 312.14L569.26 305.25C569.26 305.25 532 264.41 514.78 253C514.78 253 502.54 260 497.3 268.91Z" fill="#F9B499"/>
    <path d="M305.62 300.85C305.62 300.85 322.03 295.43 331.82 304.22L326 310.47C326 310.47 308.08 300.33 302.15 304.23L305.62 300.85Z" fill="#F7A78D"/>
    <path d="M283.15 320C281.82 318 281.38 315.25 284.92 312.19C284.92 312.19 320.08 290.72 325.99 310.52C325.99 310.52 337.14 309.04 338.21 316.13C338.21 316.13 341.06 324.41 325.99 320.27C325.99 320.27 315.16 326.1 289.19 323.5C287.989 323.394 286.825 323.026 285.781 322.421C284.738 321.816 283.839 320.99 283.15 320V320Z" fill="#F9B499"/>
    <path d="M544.36 309.14C544.36 309.14 551 298.36 565.28 301L568.28 304.28L547 312.14L544.36 309.14Z" fill="#F7A78D"/>
    <path d="M552.51 321.2C552.51 321.2 564.33 326.33 585.21 322.98C586.309 323.089 587.413 322.832 588.35 322.247C589.287 321.663 590.005 320.785 590.39 319.75C590.89 318.581 590.977 317.277 590.637 316.052C590.297 314.827 589.551 313.754 588.52 313.01C583.21 309.07 570.81 301.62 555.67 304.26C555.67 304.26 548.77 305.64 547 312.14C547 312.14 539.71 309.78 539.71 317.46C539.71 317.46 539.32 324.36 552.51 321.2Z" fill="#F9B499"/>
    <path d="M440.89 409.49L357.61 360.4C357.61 360.4 340.34 375.24 336.19 399.7C336.19 399.7 383.9 425.7 445.95 431.31C445.95 431.31 497.07 439 505.63 436.93C505.63 436.93 513.55 429.4 515.52 425.17C515.563 425.068 515.586 424.958 515.585 424.847C515.585 424.736 515.562 424.626 515.518 424.524C515.474 424.422 515.41 424.331 515.33 424.254C515.249 424.178 515.154 424.119 515.05 424.08L462.2 404.57C462.2 404.57 454.37 399.7 447.28 405.76C447.28 405.76 442.25 410.32 440.89 409.49Z" fill="#F9B499"/>
    <path d="M582.1 552L582.94 560.32C582.94 560.32 611.79 560.99 624.35 559.13L625.2 550.81C625.2 550.81 592.45 552.63 582.1 552Z" fill="#24333E"/>
    <path opacity="0.16" d="M347.26 600.38L199.26 324.11C199.26 324.11 505.42 378.29 646.85 330.43L520.6 600.43L347.26 600.38Z" fill="#CCCCCC"/>
    <path d="M336.19 497.6L347.26 600.38H520.58L528.64 497.6C528.64 497.6 433.93 492.56 336.19 497.6Z" fill="#24333E"/>
    <path opacity="0.2" d="M432.41 559.48C438.822 559.48 444.02 554.282 444.02 547.87C444.02 541.458 438.822 536.26 432.41 536.26C425.998 536.26 420.8 541.458 420.8 547.87C420.8 554.282 425.998 559.48 432.41 559.48Z" fill="black"/>
    <path d="M683.021 520.387C688.012 528.761 687.115 538.546 687.115 538.546C687.115 538.546 678.125 534.756 673.134 526.383C668.143 518.01 669.04 508.224 669.04 508.224C669.04 508.224 678.03 512.014 683.021 520.387Z" fill="#3F3E43"/>
    <path d="M680.667 463.695C682.357 473.069 689.683 480.36 689.683 480.36C689.683 480.36 694.269 472.452 692.579 463.077C690.889 453.703 683.563 446.412 683.563 446.412C683.563 446.412 678.977 454.32 680.667 463.695Z" fill="#3F3E43"/>
    <path d="M684.074 462.573C689.819 470.417 689.961 480.42 689.961 480.42C689.961 480.42 680.788 477.706 675.043 469.862C669.298 462.018 669.157 452.015 669.157 452.015C669.157 452.015 678.329 454.729 684.074 462.573Z" fill="#3F3D56"/>
    <path d="M701.652 493.562C694.312 497.168 691.516 506.22 691.516 506.22C691.516 506.22 700.621 509.424 707.961 505.818C715.3 502.212 718.096 493.16 718.096 493.16C718.096 493.16 708.992 489.955 701.652 493.562Z" fill="#3F3D56"/>
    <path d="M683.752 559.362C675.2 558.803 668.825 564.977 668.825 564.977C668.825 564.977 676.316 572.055 684.868 572.614C693.421 573.172 699.795 566.999 699.795 566.999C699.795 566.999 692.304 559.92 683.752 559.362Z" fill="#3F3D56"/>
    <path d="M612.169 587.766L612.914 588.169C614.214 584.228 616.628 580.981 619.851 578.842C624.621 575.805 630.768 575.793 636.714 575.78C637.818 575.778 638.918 575.776 640.005 575.755C644.476 575.727 648.86 575.177 653.084 574.116C668.735 569.971 681.53 555.947 687.311 536.603C691.897 521.257 692.516 502.373 689.201 478.873L688.422 478.875C691.717 502.242 691.107 521.002 686.557 536.228C680.845 555.339 668.223 569.189 652.793 573.276C648.62 574.324 644.289 574.866 639.873 574.893C638.789 574.914 637.693 574.916 636.593 574.918C630.553 574.931 624.307 574.943 619.38 578.081C616.031 580.301 613.521 583.672 612.169 587.766V587.766Z" fill="#3F3D56"/>
    <path d="M665.947 443.282C668.424 447.273 673.121 448.783 676.438 446.654C679.754 444.525 680.434 439.563 677.957 435.572C675.479 431.581 670.782 430.072 667.466 432.201C664.149 434.33 663.469 439.291 665.947 443.282Z" fill="#3F3D56"/>
    <path d="M249.367 718.768C239.62 718.942 231.572 713.304 231.572 713.304C231.572 713.304 239.326 707.383 249.072 707.209C258.819 707.034 266.867 712.672 266.867 712.672C266.867 712.672 259.113 718.593 249.367 718.768Z" fill="#3F3E43"/>
    <path d="M299.744 744.878C290.768 741.689 280.802 744.428 280.802 744.428C280.802 744.428 285.389 752.335 294.365 755.523C303.341 758.712 313.308 755.973 313.308 755.973C313.308 755.973 308.721 748.066 299.744 744.878Z" fill="#3F3E43"/>
    <path d="M299.026 748.392C289.365 749.483 280.612 744.638 280.612 744.638C280.612 744.638 287.523 738.025 297.184 736.933C306.846 735.842 315.599 740.686 315.599 740.686C315.599 740.686 308.687 747.3 299.026 748.392Z" fill="#3F3D56"/>
    <path d="M263.399 748.26C263.914 740.098 257.445 733.177 257.445 733.177C257.445 733.177 250.143 739.488 249.628 747.65C249.114 755.812 255.582 762.733 255.582 762.733C255.582 762.733 262.885 756.422 263.399 748.26Z" fill="#3F3D56"/>
    <path d="M215.175 700.048C219.906 692.902 217.714 684.303 217.714 684.303C217.714 684.303 207.85 687.29 203.118 694.436C198.386 701.582 200.579 710.181 200.579 710.181C200.579 710.181 210.443 707.194 215.175 700.048Z" fill="#3F3D56"/>
    <path d="M226.067 623.81L225.347 624.257C228.122 627.342 229.741 631.05 229.998 634.909C230.265 640.557 227.223 645.9 224.281 651.067C223.735 652.026 223.191 652.982 222.669 653.936C220.473 657.831 218.773 661.909 217.597 666.103C213.423 681.745 219.242 699.815 233.161 714.439C244.204 726.041 260.288 735.955 282.332 744.748L282.717 744.07C260.798 735.327 244.817 725.481 233.861 713.971C220.109 699.523 214.356 681.689 218.471 666.266C219.634 662.124 221.314 658.096 223.483 654.249C224.003 653.298 224.546 652.346 225.09 651.39C228.079 646.141 231.169 640.713 230.893 634.879C230.629 630.87 228.949 627.017 226.067 623.81V623.81Z" fill="#3F3D56"/>
    <path d="M324.772 742.237C320.078 742.405 316.435 745.733 316.636 749.669C316.837 753.604 320.806 756.658 325.5 756.49C330.195 756.321 333.838 752.994 333.637 749.058C333.436 745.122 329.467 742.068 324.772 742.237Z" fill="#3F3D56"/>
    </svg>
    