<svg width="24" height="20" viewBox="0 0 24 20" fill="none" xmlns="http://www.w3.org/2000/svg">
    <path d="M22.1739 2.30451e-08H15.2174C14.4989 -7.79398e-05 13.7943 0.19766 13.1807 0.571536C12.5672 0.945412 12.0684 1.48099 11.7391 2.11957C11.4098 1.48099 10.9111 0.945412 10.2975 0.571536C9.68399 0.19766 8.97935 -7.79398e-05 8.26087 2.30451e-08H1.30435C0.958413 2.30451e-08 0.626647 0.137422 0.382035 0.382034C0.137422 0.626647 0 0.958413 0 1.30435V15.2174C0 15.5633 0.137422 15.8951 0.382035 16.1397C0.626647 16.3843 0.958413 16.5217 1.30435 16.5217H8.26087C9.06717 16.5246 9.83963 16.8462 10.4098 17.4163C10.9799 17.9865 11.3015 18.7589 11.3043 19.5652C11.3043 19.6805 11.3502 19.7911 11.4317 19.8727C11.5132 19.9542 11.6238 20 11.7391 20C11.8544 20 11.965 19.9542 12.0466 19.8727C12.1281 19.7911 12.1739 19.6805 12.1739 19.5652C12.1768 18.7589 12.4983 17.9865 13.0685 17.4163C13.6386 16.8462 14.4111 16.5246 15.2174 16.5217H22.1739C22.5198 16.5217 22.8516 16.3843 23.0962 16.1397C23.3408 15.8951 23.4783 15.5633 23.4783 15.2174V1.30435C23.4783 0.958413 23.3408 0.626647 23.0962 0.382034C22.8516 0.137422 22.5198 2.30451e-08 22.1739 2.30451e-08ZM8.26087 15.6522H1.30435C1.18904 15.6522 1.07845 15.6064 0.99691 15.5248C0.915373 15.4433 0.869565 15.3327 0.869565 15.2174V1.30435C0.869565 1.18904 0.915373 1.07845 0.99691 0.99691C1.07845 0.915373 1.18904 0.869565 1.30435 0.869565H8.26087C9.06717 0.872429 9.83963 1.194 10.4098 1.76414C10.9799 2.33429 11.3015 3.10674 11.3043 3.91304V17.1087C10.9389 16.6531 10.4755 16.2856 9.94868 16.0334C9.42182 15.7813 8.84496 15.651 8.26087 15.6522ZM22.6087 15.2174C22.6087 15.3327 22.5629 15.4433 22.4814 15.5248C22.3998 15.6064 22.2892 15.6522 22.1739 15.6522H15.2174C14.6333 15.651 14.0564 15.7813 13.5296 16.0334C13.0027 16.2856 12.5394 16.6531 12.1739 17.1087V3.91304C12.1768 3.10674 12.4983 2.33429 13.0685 1.76414C13.6386 1.194 14.4111 0.872429 15.2174 0.869565H22.1739C22.2892 0.869565 22.3998 0.915373 22.4814 0.99691C22.5629 1.07845 22.6087 1.18904 22.6087 1.30435V15.2174Z" fill={props.fill/>
    </svg>
    