<svg width="15" height="24" viewBox="0 0 15 24" fill="none" xmlns="http://www.w3.org/2000/svg">
    <path fill-rule="evenodd" clip-rule="evenodd" d="M13.4542 15.7759H0.584926L0 13.2334H14.04L13.4542 15.7759Z" fill="#E2CC81"/>
    <path fill-rule="evenodd" clip-rule="evenodd" d="M7.84148 15.7047H0.617304L0.0322266 13.2334H9.45617L7.84148 15.7047Z" fill="#D9C378"/>
    <path fill-rule="evenodd" clip-rule="evenodd" d="M11.2705 23.6898H2.76926L0.930664 16.708H13.1091L11.2705 23.6898Z" fill="#E2CC81"/>
    <path d="M12.3285 0.239607C12.1263 0.118249 11.904 0.0410731 11.6741 0.0124923C11.4443 -0.0160884 11.2115 0.00448676 10.9891 0.0730414C10.7666 0.141596 10.5589 0.256786 10.3777 0.412022C10.1966 0.567259 10.0456 0.759498 9.93333 0.977745L7.06971 7.99338L4.79256 5.30682C4.6301 5.12536 4.43577 4.98061 4.2209 4.88104C4.00603 4.78146 3.77494 4.72905 3.54109 4.72686C3.30725 4.72467 3.07534 4.77274 2.85891 4.86827C2.64247 4.9638 2.44583 5.10488 2.28047 5.28327C2.11512 5.46167 1.98435 5.6738 1.89579 5.9073C1.80724 6.1408 1.76268 6.39099 1.76471 6.64327C1.76675 6.89554 1.81533 7.14486 1.90763 7.37666C1.99993 7.60846 2.1341 7.81811 2.3023 7.99338L5.82459 11.7933C6.15744 12.1534 6.60653 12.351 7.06971 12.351L7.31363 12.332C7.58357 12.2912 7.84106 12.1834 8.06583 12.0171C8.2906 11.8508 8.47652 11.6304 8.60895 11.3734L13.0118 2.82356C13.1242 2.6055 13.1957 2.36568 13.2222 2.1178C13.2487 1.86993 13.2297 1.61885 13.1662 1.3789C13.1028 1.13896 12.9961 0.914845 12.8524 0.719364C12.7086 0.523883 12.5306 0.360861 12.3285 0.239607Z" fill="#7CE28C"/>
    <path d="M2.06726 7.68006C1.4879 7.05636 1.41518 6.11552 1.89184 5.41021C2.57985 4.39215 4.05586 4.32806 4.82955 5.28266L8.38498 9.66946C8.81827 10.2041 8.85051 10.9593 8.46436 11.5288C7.78151 12.3912 6.49071 12.442 5.7421 11.6361L2.06726 7.68006Z" fill="#75D985"/>
    <path d="M10.4585 7.78484L10.0348 8.66783L9.35483 9.97301L8.63002 11.3181L6.89174 11.7239L5.40411 10.1682L10.6337 7.42547L10.4585 7.78484Z" fill="#75D985"/>
    </svg>
    