<svg width="22" height="22" viewBox="0 0 22 22" fill="none" xmlns="http://www.w3.org/2000/svg">
    <path d="M18.6329 11.9766C18.6766 11.6527 18.7 11.3266 18.7031 11C18.7 10.6734 18.6766 10.3473 18.6329 10.0234L20.803 8.36817C20.901 8.29524 20.968 8.18968 20.9911 8.07167C21.0142 7.95366 20.9919 7.83148 20.9283 7.72852L18.8735 4.25685C18.814 4.15272 18.7174 4.07339 18.602 4.03382C18.4866 3.99424 18.3604 3.99716 18.247 4.04201L15.686 5.04787C15.1531 4.65162 14.5704 4.32343 13.9519 4.07131L13.566 1.41994C13.549 1.30262 13.4888 1.19533 13.3966 1.11807C13.3044 1.04081 13.1865 0.998858 13.0649 1.00002H8.94517C8.82356 0.998858 8.70566 1.04081 8.61345 1.11807C8.52124 1.19533 8.46101 1.30262 8.44399 1.41994L8.05809 4.07131C7.43888 4.32186 6.85592 4.65016 6.32401 5.04787L3.75297 4.04201C3.63962 3.99716 3.51336 3.99424 3.39796 4.03382C3.28257 4.07339 3.18601 4.15272 3.1265 4.25685L1.07167 7.72852C1.00812 7.83148 0.98577 7.95366 1.00889 8.07167C1.032 8.18968 1.09896 8.29524 1.19696 8.36817L3.36205 10.0234C3.31856 10.3473 3.29513 10.6734 3.29188 11C3.29496 11.3266 3.31839 11.6527 3.36205 11.9766L1.19696 13.6318C1.09896 13.7048 1.032 13.8103 1.00889 13.9283C0.98577 14.0463 1.00812 14.1685 1.07167 14.2715L3.1265 17.7431C3.18601 17.8473 3.28257 17.9266 3.39796 17.9662C3.51336 18.0058 3.63962 18.0028 3.75297 17.958L6.31399 16.9521C6.84689 17.3484 7.42965 17.6766 8.04806 17.9287L8.43397 20.5801C8.45099 20.6974 8.51122 20.8047 8.60343 20.8819C8.69564 20.9592 8.81353 21.0011 8.93515 21H13.0448C13.1664 21.0011 13.2843 20.9592 13.3765 20.8819C13.4687 20.8047 13.529 20.6974 13.546 20.5801L13.9319 17.9287C14.5511 17.6781 15.1341 17.3498 15.666 16.9521L18.227 17.958C18.3403 18.0028 18.4666 18.0058 18.582 17.9662C18.6974 17.9266 18.7939 17.8473 18.8535 17.7431L20.9083 14.2715C20.9718 14.1685 20.9942 14.0463 20.9711 13.9283C20.948 13.8103 20.881 13.7048 20.783 13.6318L18.6329 11.9766ZM11 14.5059C10.2881 14.5068 9.59186 14.302 8.99944 13.9174C8.40702 13.5327 7.94502 12.9855 7.67189 12.345C7.39876 11.7045 7.32678 10.9994 7.46506 10.319C7.60335 9.63865 7.94567 9.01351 8.44872 8.52272C8.95178 8.03193 9.59295 7.69754 10.2911 7.56187C10.9893 7.4262 11.7131 7.49535 12.3709 7.76055C13.0287 8.02576 13.591 8.47511 13.9866 9.05175C14.3823 9.62839 14.5934 10.3064 14.5934 11C14.5941 11.4602 14.5016 11.9159 14.3214 12.3413C14.1411 12.7666 13.8765 13.1531 13.5427 13.4787C13.209 13.8043 12.8126 14.0626 12.3763 14.2389C11.94 14.4151 11.4723 14.5059 11 14.5059V14.5059Z" stroke={props.stroke} stroke-linecap="round" stroke-linejoin="round"/>
    </svg>
    